<svg id="Layer_1" data-name="Layer 1" xmlns="http://www.w3.org/2000/svg" viewBox="0 0 608.72 76.9"><defs><style>.cls-1{fill:#fff;}</style></defs><path class="cls-1" d="M347.55,421.52h37.68c19.23,0,29.7,9.18,29.7,26.43s-10.47,26.35-29.7,26.35h-20.6v19.32H347.55ZM384.12,460c8.41,0,13.64-4,13.64-12s-5.23-12.1-13.64-12.1H364.63V460Z" transform="translate(-347.55 -419.12)"/><path class="cls-1" d="M491.41,421.52v72.1H474.24V464.69H438.45v28.93H421.37v-72.1h17.08v28.92h35.79V421.52Z" transform="translate(-347.55 -419.12)"/><path class="cls-1" d="M497.42,457.57c0-22.66,16.05-38.45,39.56-38.45s39.66,15.79,39.66,38.45S560.59,496,537,496,497.42,480.23,497.42,457.57Zm62.22,0c0-14.16-9.78-23.61-22.66-23.61s-22.65,9.45-22.65,23.61,9.87,23.6,22.65,23.6S559.64,471.73,559.64,457.57Z" transform="translate(-347.55 -419.12)"/><path class="cls-1" d="M648,435.85h-27v57.77H603.76V435.85h-27V421.52H648Z" transform="translate(-347.55 -419.12)"/><path class="cls-1" d="M648.05,457.57c0-22.66,16.05-38.45,39.57-38.45s39.66,15.79,39.66,38.45S711.22,496,687.62,496,648.05,480.23,648.05,457.57Zm62.23,0c0-14.16-9.78-23.61-22.66-23.61S665,443.41,665,457.57s9.87,23.6,22.66,23.6S710.28,471.73,710.28,457.57Z" transform="translate(-347.55 -419.12)"/><path class="cls-1" d="M808.82,493.62H798.09l-.18-10.48c-5,7.56-14.07,12.88-26.86,12.88-21.8,0-38.45-15.79-38.45-38.45s16.13-38.45,39.82-38.45c15.62,0,31.42,7.29,35.28,25.4H790.62C787.87,438,781.35,434,772.68,434c-13.39,0-23.17,9.7-23.17,23.61s9.87,23.6,22.83,23.6c7.21,0,17.25-3.17,19.74-14.08H771.14V455.51h37.68Z" transform="translate(-347.55 -419.12)"/><path class="cls-1" d="M816.54,421.52h60.68v14h-43.6V451.3h42.06v12.36H833.62v15.88h43.6v14.08H816.54Z" transform="translate(-347.55 -419.12)"/><path class="cls-1" d="M884.61,421.52h19.82L937.91,470h1.63V421.52h16.74v72.1H936.79l-33.9-48.5h-1.55v48.5H884.61Z" transform="translate(-347.55 -419.12)"/></svg>